<?xml version="1.0" ?><!DOCTYPE svg  PUBLIC '-//W3C//DTD SVG 1.1//EN'  'http://www.w3.org/Graphics/SVG/1.1/DTD/svg11.dtd'><svg enable-background="new 0 0 200 200" id="Layer_1" version="1.1" viewBox="0 0 200 200" xml:space="preserve" xmlns="http://www.w3.org/2000/svg" xmlns:xlink="http://www.w3.org/1999/xlink"><path d="M102.1,149.3c-47.2,0-71.2-11.2-82.9-21.3c-2-1.8-7.5-8.5-9-10.9v16.5c0,8.2,7.4,16,12.8,20.6  c16.3,14,42.7,19.4,78.8,19.4c37.4,0,64.3-7.4,79.9-21.9c4.4-4.1,7-10.4,7-17.1l0.5-17.5c-1,1.6-1.9,5.5-3.3,6.7  C174.7,134.3,151,149.3,102.1,149.3z" fill="#E2A549"/><path d="M12.3,131.7c0,0,17.1,36.4,95.1,33.3c0,0,67.6-3.3,81.3-30.3c0,0,4.9,36.8-81.6,38.6  C17,175.1,11.2,138.7,12.3,131.7z" fill="#CD8932"/><path d="M147.1,122.6c0,0-0.2,0-0.3,0c-0.1,0-0.2,0-0.3,0c0,0-0.1,0-0.1,0c-0.2,0-0.3,0-0.4,0c-0.1,0-0.2,0-0.4-0.1  c-0.1,0-0.1,0-0.2-0.1c-5.7,2.1-12.1,2.4-15.9,2.4c-1,0-1.8,0-2.3,0c0,0,0,0-0.1,0c-0.1,0.1-0.1,0.1-0.2,0.1  c-0.3,0.2-0.6,0.3-0.9,0.5c0,0,0,0,0,0c-0.3,0.1-0.6,0.1-0.8,0.2c-7.3,0.7-13.6,0.9-23.2,0.9c-50.4,0-75.9-12.3-88.5-22.6  c-0.1-0.1-4.1-1.4-4.2-1.5c0.2,7.8,3.2,19.1,8.5,23.7c11.2,9.7,38.4,23,84.5,23c47.6,0,71.2-14.1,81.9-24.1  c4.4-4.1,7.1-11.9,7.1-18.6v-3.4c-5.1,4-19.4,14-43.7,19.3C147.4,122.6,147.2,122.6,147.1,122.6z" fill="#E2A549"/><path d="M153.3,133.8c-17.9,5.5-36.6,7.6-55.3,7c-80.2-2.7-88.1-31.5-88.1-31.5c7.9,38.1,89,40,89,40  c90.2-4.4,90.4-36.2,90.4-36.2C181.9,123,167.2,129.5,153.3,133.8z" fill="#CD8932"/><path d="M191.9,80.6l0-1.9c0-1.6-0.1-3.3-0.3-4.9c-0.1,0.2-0.2,0.4-0.4,0.6C186,83,175.6,88.5,165.7,92  c-0.3,0.2-0.6,0.3-0.9,0.3c-8.8,3-17.1,4.5-20.7,5l-8.8,10.5l5.1,9.7c0,0,0,0.1,0.1,0.1l0,0c0,0,0.1,0,0.1,0.1l0,1.3  c0,0,1.4,1.3,1.4,1.3c0,0,4,2.5,4,2.5c26.4-5.8,39-15.6,42.3-18.5c0.4-0.3,2-3.2,2.4-3.6c0.1-0.4,1.5-3.5,1.7-4.1  C193.2,94.1,192.2,89.4,191.9,80.6z" fill="#E2A549"/><path d="M138.1,113.1l5.8,11.7c0,0,41.6-12.5,47.5-25.7l1.1-9.3C192.5,89.9,185,104.2,138.1,113.1z" fill="#CD8932"/><path d="M122.9,99.3c-3.4,0.3-14.5,1.1-27.8,1.1c-17.4,0-42.2-1.4-61.4-8.2c0,0-0.1,0-0.1,0c0,0,0,0,0,0  c-0.3-0.1-0.6-0.2-0.8-0.3C25.2,89,19,85.6,14.3,81.5c-2.4-2.1-4.5-4.5-6.1-7c0,0.8-0.1,1.6-0.1,2.5l-1.1,2.2  c-0.5,10.9,0.5,16.7,1,18.1c0.9,1.1,1.1,5,2.2,5.9c12.1,9.9,32.6,23.4,81.9,23.4c9.5,0,19,0.7,26.2,0c0,0,1.6,0,3.2,0l3.8-2.4  c0,0,1-1.9,1-2l4.9-12.7L122.9,99.3z" fill="#E2A549"/><path d="M7,86.9c0,0,10,18.7,46.8,25c36.8,6.3,75,4,75,4l-5.1,10c0,0-56,5.9-87.7-7.8S8.1,97.3,8.1,97.3L7,86.9z" fill="#CD8932"/><path d="M12.3,122.5c0,0,19.8,36.8,95.6,32.8s80.4-33.3,80.4-33.3s-22.2,25.2-81.4,27.3S12.3,122.5,12.3,122.5z" fill="#F7CA8C"/><path d="M9.2,102.6c0,0,37.6,31.9,107.1,24.5l36.2-5.5c0,0,29.6-9,37.7-18.1c0,0-12,30.3-86.4,30.3  S16.1,115.2,9.2,102.6z" fill="#F7CA8C"/><path d="M126.4,125.2c3.9,0,10.5-0.3,16.5-2.1L135,109l-2.6,0.2L126.4,125.2z" fill="#CD8932"/><path d="M112.8,64.8l-9,9l20.4,27.2c0,0,0,0,0,0c0,0,0,0,0,0l6,8h6l6.3-9.9L112.8,64.8z" fill="#E2A549"/><path d="M112.8,65.6L94.6,44.5c0,0,0,0,0,0l-13.7-16c-1.4,2.5-4.8,7.2-7.3,10.7l30.2,34.7L112.8,65.6z" fill="#E2A549"/><path d="M81.3,28.4l61.2,70.8c0,0,55.6-11.9,48-33.6S155.7,29.2,134.3,29L106,27.3L81.3,28.4z" fill="#F7CA8C"/><path d="M65.4,29.8c0,0-11,6.3-17.9,5c0,0-13.4,8.8-22.4,9.4c0,0-21.2,18.6-16.3,28.8c0,0,7.2,21.2,58,27  c0,0,52,3.2,56.4,0L65.4,29.8z" fill="#F7CA8C"/><g><path d="M195,82.1c0-4-0.5-8-1.5-12.1c-0.5-3.6-2.5-8.6-5.4-13.2c-1.3-2.3-2.9-4.5-4.5-6.5c0,0-0.1-0.1-0.1-0.1   c0,0,0,0,0-0.1l-0.3-0.3c-4.8-4.9-8.6-8.7-17-13c-1.2-0.6-2.5-1.1-3.8-1.6l-0.9-0.3c-10.1-5.2-24-6.9-26.2-7.2   c-0.1,0-0.1-0.1-0.2-0.1c-0.5-0.1-0.9-0.2-1.4-0.2l-0.8-0.1c-0.1,0-0.2,0-0.3,0c-0.9,0-1.7-0.1-2.5-0.1c-1.2-0.1-2.5-0.1-4.3-0.1   c-2.7,0-16.7-0.9-19.7-2.1c0,0-0.1,0-0.1,0c-0.1,0-0.1,0-0.2,0c-0.1,0-0.1,0-0.2,0c0,0-0.1,0-0.1,0l-0.3,0c-0.3,0-0.6,0.1-0.8,0.2   c-2.1,1-16,1.9-23.4,1c-0.6-0.1-1.2,0.2-1.6,0.6c-0.2,0.1-0.3,0.3-0.4,0.5c-2,3.7-2.9,5.2-5.6,9.1l-6.7-7.7   c-0.6-0.7-1.7-0.9-2.5-0.4c-5,3.1-10.6,4.4-15,3.7c-0.3-0.1-0.7,0-1,0.1L48,32c0,0,0,0,0,0c-0.1,0-0.3,0.1-0.4,0.2l-1.3,0.7   c-7,4-14.3,8.2-19.2,8.6c0,0,0,0-0.1,0c-0.1,0-0.2,0-0.3,0.1c0,0-0.1,0-0.1,0c0,0,0,0,0,0c-4.4,1.7-11.2,7.5-15.8,16.4   c-0.5,0.7-3.9,6-4.7,12.9c-0.6,3-0.9,6.1-0.9,9.1l0,1.4C4.6,93,7,100.2,7.7,101.9v3.6c0,1.3,0.1,2.6,0.2,3.8   c-0.2,0.3-0.2,0.6-0.2,1L9,129.8c0,9.2,3.7,17.8,9.9,23.2c17,14.7,44.4,22.1,81.5,22.1c38.4,0,66.1-7.7,82.5-22.9   c5.2-4.8,8.2-12.1,8.2-19.8l1.3-22c0-0.2,0-0.4-0.1-0.6c0-0.6,0.1-1.1,0.1-1.7v-5.5c0-0.2,0.2-0.8,0.4-1.4   c0.9-2.8,2.5-7.9,2.2-17.2V82.1z M189.6,70.3c-0.5,1.9-1.3,3.8-2.4,5.5c-1.1,1.8-2.4,3.4-4,4.9l-6.6-7.8l12.9-2.8   C189.6,70.1,189.6,70.2,189.6,70.3z M134.6,106.9l-2.5,0.2l-6-8c0,0,0,0,0,0c0,0,0,0,0,0L106,74l6.2-6l27.6,31.1L134.6,106.9z    M134.6,110.8l6.2,11.1c-4.8,1.4-10,1.6-13,1.6l4.8-12.5L134.6,110.8z M74.4,65.9l-9.4-12.9l15.8-2.4l11,12.6L74.4,65.9z    M94.7,66.7L102,75l4.8,6.1l-19.3,2.8L76.9,69.4L94.7,66.7z M70.1,66.6l-25.3,3.8l-7.5-13.2l23.4-3.5L70.1,66.6z M51.1,89.2   l-15.9,2.2c0,0,0,0,0,0c-0.1,0-0.2-0.1-0.2-0.1c-7.2-2.6-13-5.9-17.3-9.7c-0.9-0.8-1.7-1.6-2.5-2.4l27.6-4.6L51.1,89.2z M53.1,92.8   l0.9,1.6c0.1,0.1,0.5,1,1,2c-3.8-0.7-7.4-1.4-11-2.4L53.1,92.8z M46.8,74l25.8-3.9l10.6,14.5l-28.1,4.1L46.8,74z M85.8,88.1   l8.3,11.5c-10.1-0.1-22.3-0.6-34.4-2.4c-0.8-1.7-2.3-4.6-2.3-4.6l-0.2-0.3L85.8,88.1z M90.1,87.4l19.4-2.8c0,0,0.1,0,0.1,0   l11.2,14.1c-4.6,0.3-12.8,0.8-22,0.8L90.1,87.4z M137.7,60.6l19.8-3.2l11.7,12.8l-20,3.4L137.7,60.6z M144.8,74.4l-19.1,3   l-11.4-12.8l18.9-3.3L144.8,74.4z M134.7,57.2l-11.4-12.9l19.5-2.9l11.6,12.7L134.7,57.2z M130.3,58l-18.9,3.3L99.8,47.6l19-2.7   L130.3,58z M128.7,80.8l19-3l12.8,15.1c-7.5,2.4-14.3,3.5-17.6,4L128.7,80.8z M152.1,77.1l20.2-3.4l0.9,1c0,0,0,0,0.1,0.1l7.1,8.4   c-4.6,3.6-10.3,6.3-16,8.4L152.1,77.1z M184.8,58.8c1.7,2.8,2.9,5.3,3.7,7.5l-14.8,3.2l-11.6-12.8l19.2-3.1   C182.6,55.3,183.7,57,184.8,58.8z M161,38.9c1.2,0.5,2.3,0.9,3.4,1.5c6.5,3.4,10,6.3,13.7,10L159,53.3l-11.6-12.7l13.1-2L161,38.9z    M153.8,35.8l-9.4,1.4l-4.5-4.9C143.6,33,148.8,34.1,153.8,35.8z M125.8,30.9c1.7,0,2.9,0.1,4.1,0.1c0.8,0,1.6,0.1,2.5,0.1l0.7,0.1   c0.2,0,0.5,0.1,0.7,0.1l6,6.6l-19.3,2.9l-9.9-11.1C116.5,30.5,124.4,30.9,125.8,30.9z M104.7,29l11.2,12.5l-19.1,2.7l-11.9-14   C91.6,30.4,100.8,30,104.7,29z M80.9,31.5l13.7,16c0,0,0,0,0,0l15,17.6l-6.1,5.9L75.9,39.2C78.4,35.7,79.5,33.9,80.9,31.5z    M64.7,32.3l13,15l-15.4,2.3l-10-13.7C56.4,35.8,60.7,34.5,64.7,32.3z M48,36.4l10.1,13.8l-22.9,3.4l-5-8.8   C35.5,43.5,41.8,39.9,48,36.4z M26.4,46l4.7,8.3L16,56.5C19.6,51.1,23.6,47.5,26.4,46z M13.5,60.8l19.7-3l7.5,13.2l-28.3,4.7   c-1-1.5-1.9-3.2-2.6-4.8C10.5,66.2,12.6,62.3,13.5,60.8z M8.9,81.5V80c0-0.8,0-1.6,0.1-2.5c1.6,2.5,3.7,4.8,6.1,7   c4.6,4.1,10.8,7.6,18.4,10.3c0.3,0.1,0.6,0.2,0.8,0.3c0,0,0,0,0,0c0,0,0.1,0,0.1,0c19.2,6.8,43.9,8.2,61.4,8.2   c13.4,0,24.4-0.8,27.8-1.1l5.4,7.1l-5.1,13.5c0,0,0,0.1,0,0.1l-0.3,0.9c0,0.1-0.1,0.1-0.1,0.2c0,0,0,0.1-0.1,0.1   c-0.1,0-0.1,0-0.2,0c-7.2,0.7-13.4,0.9-22.9,0.9c-49.3,0-74-11.8-86.1-21.7c-1.1-0.9-2.1-1.9-3-3C10.7,99.2,8.4,92.4,8.9,81.5z    M187.2,132.3c0,6.7-2.5,13-7,17.1c-15.7,14.5-42.5,21.9-79.9,21.9c-36.1,0-62.7-7.1-78.9-21.2c-5.4-4.6-8.6-12.2-8.6-20.4   l-0.5-7.2c1.5,2.4,3.2,4.5,5.3,6.3c11.7,10.1,35.5,22.1,82.7,22.1c48.9,0,72.5-12.5,83.8-22.9c1.4-1.3,2.6-2.7,3.6-4.2L187.2,132.3   z M188.5,108c0,6.7-2.5,13-7,17.1c-10.8,10-33.6,21.9-81.2,21.9c-46.1,0-69-11.5-80.2-21.2c-5.2-4.5-8.4-11.8-8.6-19.6   c0.1,0.1,0.2,0.2,0.3,0.3C24.4,116.8,50,129,100.3,129c9.6,0,15.9-0.3,23.2-0.9c0.3,0,0.6-0.1,0.8-0.2c0,0,0,0,0,0   c0.3-0.1,0.6-0.3,0.9-0.5c0.1,0,0.1-0.1,0.2-0.1c0,0,0,0,0.1,0c0.6,0,1.4,0,2.3,0c3.8,0,10.2-0.4,15.9-2.4c0.1,0,0.1,0,0.2,0.1   c0.1,0,0.3,0.1,0.4,0.1c0.1,0,0.3,0,0.4,0c0,0,0.1,0,0.1,0c0.1,0,0.2,0,0.3,0c0.1,0,0.3,0,0.3,0c0.1,0,0.2,0,0.3,0   c24.3-5.3,37.5-14.1,42.6-18.1V108z M189.1,100.1c-0.2,0.6-0.3,1.1-0.4,1.6c-0.4,0.4-0.8,0.8-1.1,1.1c-3.3,2.9-15.9,12.7-42.3,18.5   c-0.1,0-0.2,0-0.2,0c0,0-0.1,0-0.1,0l0,0c0,0-0.1,0-0.1-0.1l0,0c0,0,0-0.1-0.1-0.1l-6.8-12.1l5.4-8.1c3.6-0.5,11.9-1.9,20.7-5   c0.3,0,0.6-0.1,0.9-0.3c9.9-3.5,20.3-9,25.6-17.6c0.1-0.2,0.3-0.4,0.4-0.6c0.2,1.6,0.3,3.3,0.3,4.9l0,1.9   C191.4,92.8,189.9,97.5,189.1,100.1z" fill="#674720"/></g><polygon fill="#CD8932" points="79.8,53.5 70.3,55 75.8,62.5 79.8,61.9 "/><polygon fill="#CD8932" points="93.9,69.8 93.6,69.5 82,71.5 88.9,80.5 93.9,80 "/><path d="M64.4,35.8c-3.5,2.3-7.1,2.3-7.1,2.3l6.4,8.7l0.7-0.1V35.8z" fill="#CD8932"/><polygon fill="#CD8932" points="58.6,56.9 42.5,59.5 46.9,67 58.6,65.3 "/><polygon fill="#CD8932" points="70.3,74 53.1,76.6 58,84.9 70.3,83.1 "/><path d="M31.1,61.2L16,63.4c0,0-1.9,4.3-2.3,6.2l1.2,2.6l16.2-2.7V61.2z" fill="#CD8932"/><path d="M40.3,78.9l-16.5,2.7c0,0,10.3,6.1,14.6,6.7l1.9-0.3V78.9z" fill="#CD8932"/><path d="M47.4,41.3c0,0-6.4,3.9-12.1,4.7l2.4,4.5l9.8-1.4V41.3z" fill="#CD8932"/><path d="M25.4,50c-0.5,0.2-2.4,1.2-4.4,3.5l4.4-0.6V50z" fill="#CD8932"/><path d="M83.7,91.6L63,94.3c1.6,0.3,14.2,1.6,20.7,2.3V91.6z" fill="#CD8932"/><path d="M108.3,87.5l-13.9,1.8l6,7.9c0,0,3.9-0.1,7.8-0.2V87.5z" fill="#CD8932"/><path d="M103.3,32.7c-1,0.1-9.3,0.8-12.3,0l7,8.6l5.3-0.7V32.7z" fill="#CD8932"/><polygon fill="#CD8932" points="117.2,48.2 106.2,49.9 112.8,58 117.2,57.3 "/><polygon fill="#CD8932" points="131.8,64.3 119.5,66.5 127.1,74.5 131.8,73.9 "/><path d="M146.5,81L146.5,81l-12.3,1.7l10.2,11.1c0,0,0.8-0.1,2.1-0.3V81z" fill="#CD8932"/><path d="M117.2,33l4.8,5.1l9.8-1.4v-3.1C129.7,33.7,121,33.8,117.2,33z" fill="#CD8932"/><polygon fill="#CD8932" points="141.5,44.2 128.1,45.9 136.2,54.7 141.5,53.9 "/><polygon fill="#CD8932" points="156.6,60.6 156.5,60.5 143.1,62.5 150.9,71.1 156.6,70.2 "/><path d="M171.2,76.8l-13.9,2.2l8,9c0,0,3-1,5.9-2.3V76.8z" fill="#CD8932"/><path d="M160.6,41.9C160.5,41.8,160.5,41.8,160.6,41.9l-7.6,0.8l7.4,7.9l0.2,0V41.9z" fill="#CD8932"/><polygon fill="#CD8932" points="180,56.6 167.2,58.4 174.9,66.7 180,65.7 "/><path d="M183.5,73.4l-2.6,0.4l2.3,3c0,0,0.1-0.1,0.3-0.3V73.4z" fill="#CD8932"/></svg>